<svg id="Layer_1" data-name="Layer 1" xmlns="http://www.w3.org/2000/svg" viewBox="0 0 441.84 144.28"><defs><style>.cls-1{fill:#1f5598;}</style></defs><title>logo-gmic</title><path class="cls-1" d="M381.3,215.32h-25.1a1.77,1.77,0,0,0-2,2V357.56a1.77,1.77,0,0,0,2,2h25.1a1.78,1.78,0,0,0,2-2V217.33A1.78,1.78,0,0,0,381.3,215.32Z" transform="translate(-55.67 -215.32)"/><path class="cls-1" d="M337.74,237.44c0-.34,0-0.71,0-1.06A21.85,21.85,0,0,0,317,215.66h0l-5.24-.26-0.28,0h-0.29a2.22,2.22,0,0,1-.34,0s0,0,0,0c-0.62,0-1.23,0-1.87,0h-0.28c-3.15,0-6,.12-8.53.32a20.72,20.72,0,0,0-3.72.39,21.84,21.84,0,0,0-16.28,13.88c-0.21.56-.38,1.11-0.54,1.69-0.08.31-.18,0.63-0.28,1l-0.14.78-0.17,1-11.65,70.35-1.55,9.5-1.22,7.22a0.67,0.67,0,0,1,0,.11l-0.86,5.2a1.65,1.65,0,0,1,0,.28l0,0h0a1.29,1.29,0,0,1-2.49,0h0l0,0c0-.08,0-0.18,0-0.28l-0.87-5.2a0.81,0.81,0,0,0,0-.11l-1.2-7.22-1.57-9.5-11.65-70.35-0.16-1-0.13-.78c-0.1-.33-0.18-0.65-0.28-1-0.16-.58-0.34-1.13-0.54-1.69A21.81,21.81,0,0,0,228.51,216a20.77,20.77,0,0,0-3.72-.39c-2.54-.2-5.37-0.32-8.53-0.32H216c-0.63,0-1.26,0-1.86,0v0a2.43,2.43,0,0,1-.33,0H213.5l-0.29,0-5.24.26h0a21.85,21.85,0,0,0-20.68,20.71c0,0.35,0,.72,0,1.06,0,0,0,.07,0,0.1s0,0.08,0,.12V357.57a1.79,1.79,0,0,0,2,2h25.08a1.76,1.76,0,0,0,2-2L216.29,258v-0.3l0-9h0l0-2.31a1.92,1.92,0,0,1,3.76-.21,1.81,1.81,0,0,1,0,.18l0.19,0.9,1.38,6.5,0.26,1.27,0.89,4.12h0c0,0.15.06,0.32,0.1,0.47l2.38,11.23c0.5,2.39,1.08,5.16,1.77,8.31l5.44,25.68c0.1,0.43.18,0.86,0.27,1.29q2.73,13.29,7.14,33.6l0.08,0.38a24.15,24.15,0,0,0,.64,3,22.85,22.85,0,0,0,21.92,16.47h0a23.5,23.5,0,0,0,2.72-.17,22.81,22.81,0,0,0,19.18-16.31,23.18,23.18,0,0,0,.65-3l0.07-.38q4.42-20.28,7.13-33.6l0.28-1.29L298,279.19c0.68-3.15,1.27-5.92,1.77-8.31l2.37-11.23c0-.15.07-0.32,0.11-0.47h0l0.87-4.12,0.28-1.27,1.37-6.5,0.18-.9c0-.07,0-0.12,0-0.18a1.91,1.91,0,0,1,3.75.21v2.31h0V258l-0.1,99.62a1.77,1.77,0,0,0,2,2h25.11a1.78,1.78,0,0,0,2-2V237.44Z" transform="translate(-55.67 -215.32)"/><path class="cls-1" d="M170.14,273.07H107.7a1.72,1.72,0,0,0-2,1.45,3.1,3.1,0,0,0-.06.56v22.13a1.78,1.78,0,0,0,2,2h32.72a1.77,1.77,0,0,1,2,2v17.3a15,15,0,0,1-12.7,14.52,19.92,19.92,0,0,1-2.39.17H102.07A17.24,17.24,0,0,1,84.83,316v-6.85c0-.23,0-0.44,0-0.65V258.72a17.13,17.13,0,0,1,1.56-7.17,17.37,17.37,0,0,1,6.3-7.29,17.13,17.13,0,0,1,9.39-2.78h58a1.76,1.76,0,0,0,2-2V217.33a1.77,1.77,0,0,0-2-2H96c-0.62,0-1.24,0-1.84,0l-0.54,0-1.43.11-0.44,0-1.72.22-0.59.1-1.16.21-0.69.14-1.28.3-1,.26c-0.29.08-.6,0.16-0.89,0.26l-0.9.28-0.66.22c-0.69.25-1.38,0.5-2.05,0.78l-0.13,0c-0.37.15-.72,0.32-1.09,0.46l-0.36.16c-1.18.55-2.33,1.14-3.44,1.78l-0.11.07c-0.38.21-.77,0.45-1.14,0.69h0c-0.68.43-1.33,0.88-2,1.35l-0.1.07c-1,.7-1.89,1.44-2.8,2.23a1.73,1.73,0,0,0-.19.16c-0.86.75-1.7,1.55-2.5,2.38l-0.27.28c-0.53.55-1,1.12-1.54,1.72h0c-0.23.26-.43,0.52-0.66,0.79l-0.35.45c-0.31.41-.62,0.83-0.93,1.24-0.14.2-.27,0.4-0.42,0.59s-0.33.5-.5,0.75l-0.44.69c-0.21.34-.43,0.67-0.63,1s-0.33.56-.49,0.85-0.24.46-.36,0.67l-0.56,1.08c-0.12.25-.23,0.48-0.34,0.73s-0.32.7-.47,1.06c-0.09.19-.17,0.39-0.25,0.59-0.21.47-.4,1-0.58,1.45a4.09,4.09,0,0,0-.16.47c-0.15.41-.29,0.81-0.42,1.22a5,5,0,0,0-.16.5c-0.16.52-.31,1-0.45,1.58a3.45,3.45,0,0,0-.11.44c-0.11.47-.23,0.94-0.33,1.4,0,0.12-.06.25-0.07,0.38-0.12.56-.22,1.13-0.31,1.69,0,0.14,0,.29-0.06.44-0.07.52-.14,1.06-0.2,1.59,0,0.06,0,.15,0,0.22-0.06.59-.1,1.2-0.13,1.8,0,0.15,0,.29,0,0.43,0,0.61,0,1.22,0,1.86s0,1.13,0,1.69h0V313.3c0,0.58,0,1.17,0,1.75s0,1.14,0,1.71,0,1.33.06,2c0,0.11,0,.21,0,0.32,0,0.63.1,1.25,0.15,1.87,0,0.13,0,.26,0,0.39,0.06,0.62.13,1.24,0.23,1.85,0,0.1,0,.21.06,0.31,0.09,0.58.19,1.14,0.29,1.71a2,2,0,0,1,.06.25c0.12,0.59.26,1.17,0.4,1.74,0,0.15.07,0.31,0.11,0.46,0.14,0.55.3,1.08,0.46,1.62,0,0.17.11,0.35,0.17,0.53,0.16,0.5.33,1,.51,1.53,0.06,0.17.14,0.35,0.21,0.53,0.15,0.4.31,0.78,0.47,1.17l0.24,0.6c0.19,0.44.4,0.88,0.6,1.32,0.11,0.23.23,0.47,0.34,0.7,0.2,0.43.41,0.82,0.62,1.23,0.14,0.25.29,0.51,0.42,0.77l0.41,0.71c0.25,0.42.49,0.83,0.76,1.24l0.34,0.54c0.34,0.53.7,1,1.06,1.54,0.06,0.08.12,0.18,0.18,0.26,0.22,0.31.45,0.62,0.68,0.9L64.68,343c0.44,0.57.91,1.13,1.37,1.67l0.14,0.18c0.49,0.55,1,1.11,1.5,1.63a0,0,0,0,0,0,0,42.49,42.49,0,0,0,4.41,4h0s0,0,0,0a43.41,43.41,0,0,0,7,4.46,0.05,0.05,0,0,1,0,0c1.21,0.62,2.49,1.19,3.78,1.7s2.63,0.95,4,1.33h0.06a42.79,42.79,0,0,0,8.42,1.48h0.07c0.57,0,1.15.07,1.73,0.09s0.94,0,1.41,0,0.67,0,1,0h31q11.84,0,19.75-4.42a41.85,41.85,0,0,0,12.77-10.57A40.67,40.67,0,0,0,170,331.71a39.57,39.57,0,0,0,2.09-11.37V275.08A1.76,1.76,0,0,0,170.14,273.07Z" transform="translate(-55.67 -215.32)"/><path class="cls-1" d="M399.06,253.22" transform="translate(-55.67 -215.32)"/><path class="cls-1" d="M428.08,258.49h0a17.27,17.27,0,0,1,14.47-16.78,17.59,17.59,0,0,1,2.78-.22h50.18a1.78,1.78,0,0,0,2-2V217.33a1.78,1.78,0,0,0-2-2h-59a38.34,38.34,0,0,0-37.44,37.91v0l0,5.73c0,0.42,0,.83,0,1.24v56.34c0,0.54,0,1,0,1.54,0,0.32,0,.63,0,0.94a40.5,40.5,0,0,0,39.77,40.49h0l3.64,0c0.57,0,1.17,0,1.78,0h51.39a1.78,1.78,0,0,0,2-2V335.45a1.77,1.77,0,0,0-2-2h-52l1.8,0a17.26,17.26,0,0,1-17.27-17V266.63c0-.48,0-1,0-1.47v-6.68Z" transform="translate(-55.67 -215.32)"/></svg>