<svg id="Layer_1" data-name="Layer 1" xmlns="http://www.w3.org/2000/svg" viewBox="0 0 117.79 35.57"><defs><style>.cls-1{fill:#d51c29;}</style></defs><title>logo-gwc</title><path class="cls-1" d="M394.89,289.74v0Z" transform="translate(-337.85 -288.49)"/><path class="cls-1" d="M395.75,288.61h0Z" transform="translate(-337.85 -288.49)"/><path class="cls-1" d="M394.88,289.79h0v0Z" transform="translate(-337.85 -288.49)"/><path class="cls-1" d="M395.76,288.6l0.1,0Z" transform="translate(-337.85 -288.49)"/><path class="cls-1" d="M384.09,290.69v0h0s0-.06,0-0.1v-0.12h0a2,2,0,0,0-.2-0.72,2.18,2.18,0,0,0-2-1.24h-42a2.18,2.18,0,0,0-2,2v31.31s0,0,0,.07a2.18,2.18,0,0,0,2.18,2.18h29a2.18,2.18,0,0,0,2.09-1.58,1.79,1.79,0,0,0,.08-0.55v0h0V305.43s0,0,0-.07a1.82,1.82,0,0,0-1.82-1.82H358.47a1.82,1.82,0,0,0-1.8,1.8v3.9h0a1.82,1.82,0,0,0,1.8,1.78h5.22v3.76h0s0,0.08,0,.12v0.16h0v0.08a1.82,1.82,0,0,1-1.77,1.45H347.14a1.82,1.82,0,0,1-1.82-1.82h0v-17h0a1.82,1.82,0,0,1,1.82-1.82h27.67a1.82,1.82,0,0,1,1.81,1.72v24.6a1.82,1.82,0,0,0,1.82,1.78h13.43v-7.47h-7.78V290.69Z" transform="translate(-337.85 -288.49)"/><path class="cls-1" d="M455.38,317.22a1.33,1.33,0,0,0-.6-0.5,1.46,1.46,0,0,0-.46-0.12h-28.4v7.47h28.27a1.45,1.45,0,0,0,1.45-1.43h0v-4.41s0-.07,0-0.1,0-.05,0-0.08A1.44,1.44,0,0,0,455.38,317.22Z" transform="translate(-337.85 -288.49)"/><path class="cls-1" d="M394.88,289.8h0Z" transform="translate(-337.85 -288.49)"/><path class="cls-1" d="M394.88,289.81c0,0.06,0,.09,0,0.09v0s0-.1,0-0.15h0Z" transform="translate(-337.85 -288.49)"/><path class="cls-1" d="M396.36,288.49h0a1.45,1.45,0,0,0-.37,0,1.47,1.47,0,0,1,.37,0h0Z" transform="translate(-337.85 -288.49)"/><path class="cls-1" d="M395.86,288.57l0.06,0Z" transform="translate(-337.85 -288.49)"/><path class="cls-1" d="M395.92,288.55h0Z" transform="translate(-337.85 -288.49)"/><path class="cls-1" d="M402.34,289.94h0a1.45,1.45,0,0,0-1.45-1.45h0A1.45,1.45,0,0,1,402.34,289.94Z" transform="translate(-337.85 -288.49)"/><path class="cls-1" d="M455.64,289.94a1.45,1.45,0,0,0-1.31-1.45H414.58a1.45,1.45,0,0,0-.82.25,1.34,1.34,0,0,0-.52.63,1.46,1.46,0,0,0-.11.39,1.14,1.14,0,0,0,0,.14v26.69H402.34V290.08s0-.05,0-0.08,0,0,0-.05h0a1.45,1.45,0,0,0-1.45-1.45h-4.57a1.47,1.47,0,0,0-.37,0h0l-0.06,0-0.1,0h0a1.45,1.45,0,0,0-.85,1v0.14h0s0,0.1,0,.15v32.3a1.82,1.82,0,0,0,1.72,1.81h24v-26.5s0-.05,0-0.08,0,0,0-.07a1.45,1.45,0,0,1,.28-0.86l0.09-.11h0l0,0a1.45,1.45,0,0,1,1-.44h32.14a1.45,1.45,0,0,0,1.44-1.6c0-.08,0-0.13,0-0.13v-4.11s0-.07,0-0.1S455.64,290,455.64,289.94Z" transform="translate(-337.85 -288.49)"/></svg>