<svg id="Layer_1" data-name="Layer 1" xmlns="http://www.w3.org/2000/svg" viewBox="0 0 817.48 157.73"><defs><style>.cls-1{fill:#263238;}</style></defs><title>robotxspace-dark</title><path class="cls-1" d="M474.77,274.1l-7.54,9.7-51.07,70.89H401.72l58.61-80.59-52.79-72.83h14.87l45.68,63.57Z" transform="translate(-71.26 -201.27)"/><path class="cls-1" d="M498.88,274.1l-7.54,9.7-51.07,70.89H425.83l58.61-80.59-52.79-72.83h14.87l45.68,63.57Z" transform="translate(-71.26 -201.27)"/><polygon class="cls-1" points="430.88 63.57 431.91 66.36 479.03 2.73 464.16 2.73 424.68 56.3 430.88 63.57"/><polygon class="cls-1" points="431.71 82.51 430.02 83.61 424.68 92.63 470.41 157.73 484.85 157.73 431.71 82.51"/><path class="cls-1" d="M93.43,289.15h-16v33.77h-6.2V241.31H98.33c12.5,0,22.07,8.93,22.07,23.86s-9.35,23-20.11,23.49l21,34.26h-7.5Zm4.35-41.48H77.45v35.12H97.78c9.57,0,16.09-7.34,16.09-17.62S107.35,247.67,97.78,247.67Z" transform="translate(-71.26 -201.27)"/><path class="cls-1" d="M168.34,240c21.2,0,35.22,18.35,35.22,42.22s-14,42.22-35.22,42.22S133.12,306,133.12,282.18,147,240,168.34,240Zm0,6.36c-17.61,0-28.7,15.05-28.7,35.85,0,20.56,11.09,35.85,28.7,35.85,17.39,0,28.7-15.3,28.7-35.85C197,261.38,185.73,246.33,168.34,246.33Z" transform="translate(-71.26 -201.27)"/><path class="cls-1" d="M218.9,241.31h29.78c12.17,0,20,8,20,20.8,0,10.28-6.2,17.25-12.72,18.72,7.72,1.35,14.13,10.4,14.13,20.07,0,13.58-7.83,22-20.76,22H218.9Zm29,36.59c9.35,0,14.24-6.61,14.24-15.05s-4.89-15.17-14.24-15.17H225.1V277.9Zm.44,38.67c9.56,0,15.22-6.24,15.22-16.15,0-8.32-5.11-16.15-15.22-16.15H225.1v32.3Z" transform="translate(-71.26 -201.27)"/><path class="cls-1" d="M318.16,240c21.2,0,35.22,18.35,35.22,42.22s-14,42.22-35.22,42.22S282.94,306,282.94,282.18,296.85,240,318.16,240Zm0,6.36c-17.61,0-28.7,15.05-28.7,35.85,0,20.56,11.09,35.85,28.7,35.85,17.39,0,28.7-15.3,28.7-35.85C346.86,261.38,335.55,246.33,318.16,246.33Z" transform="translate(-71.26 -201.27)"/><path class="cls-1" d="M384,247.67h-23.7v-6.36H414v6.36h-23.7v75.26H384Z" transform="translate(-71.26 -201.27)"/><path class="cls-1" d="M549,306.16A33.26,33.26,0,0,0,574.45,318c16.76,0,21.54-9.3,21.54-16.28,0-11.5-10.89-14.68-22.39-17.74C560.74,280.47,547,276.8,547,261.74c0-13.34,12-21.78,26.8-21.78,12.24,0,21.29,4.28,27.66,11.5l-4.65,5.14c-5.87-7.1-14.19-10.28-23.37-10.28-10.89,0-19.09,6.24-19.09,15.05,0,9.67,10.16,12.48,21.29,15.42,13.22,3.79,27.66,8,27.66,24.48,0,10.52-7,23.13-29,23.13-13.46,0-23.62-5.38-29.86-13Z" transform="translate(-71.26 -201.27)"/><path class="cls-1" d="M620.1,241.31H650.7c15.66,0,24.6,11,24.6,23.86S666.24,289,650.7,289H627.08v33.9h-7ZM650,247.67H627.08v35H650c10.77,0,18-7.22,18-17.5S660.73,247.67,650,247.67Z" transform="translate(-71.26 -201.27)"/><path class="cls-1" d="M731.47,302.86H688l-8.2,20.07H672l33.41-81.62h8.69l33.41,81.62h-7.83Zm-41.24-6.36h39l-19.58-48.33Z" transform="translate(-71.26 -201.27)"/><path class="cls-1" d="M751.68,282.18c0-25.09,18.23-42.22,41.11-42.22,13.22,0,23,5.75,30,14.44l-5.87,3.79a29.78,29.78,0,0,0-24.11-11.87c-19,0-33.77,14.56-33.77,35.85,0,21,14.81,35.85,33.77,35.85a29.78,29.78,0,0,0,24.11-11.87l5.87,3.67c-7.22,8.93-16.76,14.56-30,14.56C769.91,324.4,751.68,307.27,751.68,282.18Z" transform="translate(-71.26 -201.27)"/><path class="cls-1" d="M837,241.31h51.76v6.36H844V277.9h43.93v6.36H844v32.3h44.79v6.36H837Z" transform="translate(-71.26 -201.27)"/></svg>