<svg id="Layer_1" data-name="Layer 1" xmlns="http://www.w3.org/2000/svg" viewBox="0 0 227.62 43.77"><defs><style>.cls-1{fill:#fff;}</style></defs><title>robotxspace</title><path class="cls-1" d="M113.54,21.51l-2.1,2.7L97.22,43.95h-4l16.32-22.44L94.82,1.23H99l12.72,17.7Z" transform="translate(-1.19 -1.23)"/><path class="cls-1" d="M120.26,21.51l-2.1,2.7L103.94,43.95h-4l16.32-22.44L101.54,1.23h4.14l12.72,17.7Z" transform="translate(-1.19 -1.23)"/><polygon class="cls-1" points="119.98 17.7 120.26 18.48 133.38 0.77 129.24 0.77 118.25 15.68 119.98 17.7"/><polygon class="cls-1" points="120.21 22.9 119.74 23.24 118.25 25.7 130.98 43.77 135 43.77 120.21 22.9"/><path class="cls-1" d="M7.36,25.7H2.91v9.4H1.19V12.38H8.72c3.48,0,6.14,2.49,6.14,6.64s-2.6,6.41-5.6,6.54l5.84,9.54H13ZM8.57,14.15H2.91v9.78H8.57c2.66,0,4.48-2,4.48-4.91S11.24,14.15,8.57,14.15Z" transform="translate(-1.19 -1.23)"/><path class="cls-1" d="M28.22,12C34.12,12,38,17.11,38,23.76s-3.9,11.75-9.81,11.75-9.81-5.11-9.81-11.75S22.29,12,28.22,12Zm0,1.77c-4.9,0-8,4.19-8,10s3.09,10,8,10,8-4.26,8-10S33.06,13.77,28.22,13.77Z" transform="translate(-1.19 -1.23)"/><path class="cls-1" d="M42.3,12.38h8.29c3.39,0,5.57,2.21,5.57,5.79,0,2.86-1.73,4.8-3.54,5.21,2.15,0.38,3.93,2.9,3.93,5.59,0,3.78-2.18,6.13-5.78,6.13H42.3V12.38Zm8.08,10.19c2.6,0,4-1.84,4-4.19s-1.36-4.22-4-4.22H44v8.42h6.36ZM50.5,33.33c2.66,0,4.24-1.74,4.24-4.5a4.18,4.18,0,0,0-4.24-4.5H44v9H50.5Z" transform="translate(-1.19 -1.23)"/><path class="cls-1" d="M69.94,12c5.9,0,9.81,5.11,9.81,11.76s-3.9,11.75-9.81,11.75-9.81-5.11-9.81-11.75S64,12,69.94,12Zm0,1.77c-4.9,0-8,4.19-8,10s3.09,10,8,10,8-4.26,8-10S74.78,13.77,69.94,13.77Z" transform="translate(-1.19 -1.23)"/><path class="cls-1" d="M88.28,14.15h-6.6V12.38h15v1.77H90v21H88.28v-21Z" transform="translate(-1.19 -1.23)"/><path class="cls-1" d="M134.21,30.43a9.26,9.26,0,0,0,7.09,3.31c4.67,0,6-2.59,6-4.53,0-3.2-3-4.09-6.24-4.94-3.58-1-7.39-2-7.39-6.2,0-3.71,3.34-6.06,7.46-6.06a9.76,9.76,0,0,1,7.7,3.2l-1.29,1.43A8.14,8.14,0,0,0,141,13.77c-3,0-5.32,1.74-5.32,4.19,0,2.69,2.83,3.48,5.93,4.29,3.68,1.06,7.7,2.21,7.7,6.81,0,2.93-1.94,6.44-8.08,6.44A10.45,10.45,0,0,1,133,31.9Z" transform="translate(-1.19 -1.23)"/><path class="cls-1" d="M154,12.38h8.52A6.46,6.46,0,0,1,169.38,19a6.48,6.48,0,0,1-6.85,6.64H156V35.1H154V12.38Zm8.31,1.77H156v9.74h6.37a4.7,4.7,0,0,0,5-4.87A4.7,4.7,0,0,0,162.32,14.15Z" transform="translate(-1.19 -1.23)"/><path class="cls-1" d="M185,29.51h-12.1l-2.28,5.59h-2.18l9.3-22.73h2.42l9.3,22.73H187.3Zm-11.48-1.77h10.87L179,14.28Z" transform="translate(-1.19 -1.23)"/><path class="cls-1" d="M190.65,23.76c0-7,5.08-11.76,11.45-11.76a10.29,10.29,0,0,1,8.35,4l-1.64,1.06a8.29,8.29,0,0,0-6.71-3.31c-5.28,0-9.4,4.05-9.4,10s4.12,10,9.4,10a8.29,8.29,0,0,0,6.71-3.31l1.64,1a10.22,10.22,0,0,1-8.35,4.05C195.72,35.51,190.65,30.74,190.65,23.76Z" transform="translate(-1.19 -1.23)"/><path class="cls-1" d="M214.4,12.38h14.41v1.77H216.34v8.42h12.23v1.77H216.34v9h12.47V35.1H214.4V12.38Z" transform="translate(-1.19 -1.23)"/></svg>